# xmcd
#
# Track frame offsets:
#	150
#	27294
#	48850
#	68032
#	86020
#	104385
#	127067
#	134225
#
# Disc length: 2609 seconds
#
# Revision: 1
# Processed by: cddbd v1.4PL0 Copyright (c) Steve Scherf et al.
# Submitted via: audiograbber 1.80
#
DISCID=710a2f08
DTITLE=The Court and Spark - Ventura Whites
DYEAR=1900
DGENRE=
TTITLE0=Saturn City
TTITLE1=Ghost of Sigma
TTITLE2=Doctor,the Veranda
TTITLE3=Dunedin,Dunedin
TTITLE4=A Joyful Dispel
TTITLE5=Burnig Bridges
TTITLE6=Ventua Whites
TTITLE7=Sugar Pie in Bed
EXTD=
EXTT0=
EXTT1=
EXTT2=
EXTT3=
EXTT4=
EXTT5=
EXTT6=
EXTT7=
PLAYORDER=
